<svg width="1168" height="149" viewBox="0 0 1168 149" fill="none" xmlns="http://www.w3.org/2000/svg">
<path d="M77.457 94.1445V64.3594H145.816V125.395C132.73 134.314 121.142 140.401 111.051 143.656C101.025 146.846 89.1107 148.441 75.3086 148.441C58.3164 148.441 44.4492 145.544 33.707 139.75C23.0299 133.956 14.7292 125.329 8.80469 113.871C2.94531 102.413 0.015625 89.2617 0.015625 74.418C0.015625 58.793 3.23828 45.2188 9.68359 33.6953C16.1289 22.1068 25.569 13.3177 38.0039 7.32812C47.7044 2.70573 60.7578 0.394531 77.1641 0.394531C92.9844 0.394531 104.801 1.82682 112.613 4.69141C120.491 7.55599 127.001 12.0156 132.145 18.0703C137.353 24.0599 141.259 31.6771 143.863 40.9219L101.188 48.5391C99.4297 43.1354 96.4349 39.0013 92.2031 36.1367C88.0365 33.2721 82.6979 31.8398 76.1875 31.8398C66.487 31.8398 58.7396 35.2253 52.9453 41.9961C47.2161 48.7018 44.3516 59.3464 44.3516 73.9297C44.3516 89.4245 47.2487 100.492 53.043 107.133C58.9023 113.773 67.0404 117.094 77.457 117.094C82.4049 117.094 87.125 116.378 91.6172 114.945C96.1094 113.513 101.253 111.072 107.047 107.621V94.1445H77.457ZM240.172 122.367H189.781L182.848 146H137.633L191.441 2.83594H239.684L293.492 146H247.203L240.172 122.367ZM230.895 91.4102L215.074 39.9453L199.352 91.4102H230.895ZM287.262 2.83594H345.465L367.926 89.9453L390.289 2.83594H448.297V146H412.164V36.8203L384.137 146H351.422L323.492 36.8203V146H287.262V2.83594ZM456.52 2.83594H575.074V33.4023H500.855V56.1562H569.703V85.3555H500.855V113.578H577.223V146H456.52V2.83594ZM622.379 74.5156C622.379 51.1432 628.889 32.9466 641.91 19.9258C654.931 6.90495 673.062 0.394531 696.305 0.394531C720.133 0.394531 738.492 6.80729 751.383 19.6328C764.273 32.3932 770.719 50.2969 770.719 73.3438C770.719 90.0755 767.887 103.812 762.223 114.555C756.624 125.232 748.486 133.565 737.809 139.555C727.197 145.479 713.948 148.441 698.062 148.441C681.917 148.441 668.538 145.87 657.926 140.727C647.379 135.583 638.818 127.445 632.242 116.312C625.667 105.18 622.379 91.2474 622.379 74.5156ZM666.617 74.7109C666.617 89.1641 669.286 99.5482 674.625 105.863C680.029 112.178 687.353 115.336 696.598 115.336C706.103 115.336 713.46 112.243 718.668 106.059C723.876 99.8737 726.48 88.7734 726.48 72.7578C726.48 59.2812 723.746 49.4505 718.277 43.2656C712.874 37.0156 705.517 33.8906 696.207 33.8906C687.288 33.8906 680.126 37.0482 674.723 43.3633C669.319 49.6784 666.617 60.1276 666.617 74.7109ZM751.793 2.83594H798.082L830.309 105.863L862.047 2.83594H906.969L853.844 146H805.895L751.793 2.83594ZM901.52 2.83594H1020.07V33.4023H945.855V56.1562H1014.7V85.3555H945.855V113.578H1022.22V146H901.52V2.83594ZM1026.73 146V2.83594H1100.46C1114.14 2.83594 1124.59 4.00781 1131.81 6.35156C1139.04 8.69531 1144.87 13.0573 1149.29 19.4375C1153.72 25.7526 1155.93 33.4674 1155.93 42.582C1155.93 50.5247 1154.24 57.3932 1150.86 63.1875C1147.47 68.9167 1142.82 73.5716 1136.89 77.1523C1133.11 79.431 1127.94 81.319 1121.36 82.8164C1126.64 84.5742 1130.48 86.332 1132.89 88.0898C1134.51 89.2617 1136.86 91.7682 1139.92 95.6094C1143.04 99.4505 1145.13 102.413 1146.17 104.496L1167.55 146H1117.55L1093.92 102.25C1090.93 96.5859 1088.26 92.9076 1085.91 91.2148C1082.72 89.0013 1079.11 87.8945 1075.07 87.8945H1071.17V146H1026.73ZM1071.17 60.8438H1089.82C1091.84 60.8438 1095.74 60.1927 1101.54 58.8906C1104.47 58.3047 1106.85 56.8073 1108.67 54.3984C1110.56 51.9896 1111.5 49.2227 1111.5 46.0977C1111.5 41.4753 1110.04 37.9271 1107.11 35.4531C1104.18 32.9792 1098.67 31.7422 1090.6 31.7422H1071.17V60.8438Z" fill="white"/>
</svg>
